<svg width="65" height="32" viewBox="0 0 65 32" fill="none" xmlns="http://www.w3.org/2000/svg">
<path d="M27.0001 8.76001C28.4904 7.2995 30.4969 6.48614 32.5835 6.49668C34.6702 6.50722 36.6683 7.34081 38.1438 8.8163C39.6193 10.2918 40.4529 12.29 40.4634 14.3766C40.474 16.4632 39.6606 18.4697 38.2001 19.96L34.0141 24.146C33.639 24.521 33.1304 24.7316 32.6001 24.7316C32.0698 24.7316 31.5611 24.521 31.1861 24.146L27.0001 19.96C25.515 18.4747 24.6807 16.4604 24.6807 14.36C24.6807 12.2596 25.515 10.2453 27.0001 8.76001Z" stroke="#050E2B" stroke-width="1.5" stroke-linejoin="round"/>
<path d="M32.6001 17.3599C34.257 17.3599 35.6001 16.0167 35.6001 14.3599C35.6001 12.703 34.257 11.3599 32.6001 11.3599C30.9432 11.3599 29.6001 12.703 29.6001 14.3599C29.6001 16.0167 30.9432 17.3599 32.6001 17.3599Z" stroke="#050E2B" stroke-width="1.5" stroke-linecap="round" stroke-linejoin="round"/>
</svg>
