<svg width="24" height="24" viewBox="0 0 24 24" fill="none" xmlns="http://www.w3.org/2000/svg">
<g clip-path="url(#clip0_3404_32338)">
<path d="M12 8V12L14.5 14.5" stroke="#3671D9" stroke-width="1.5" stroke-linecap="round" stroke-linejoin="round"/>
<path d="M4.33858 6.87113L3.58858 6.87413C3.58937 7.07183 3.66819 7.26123 3.80789 7.40112C3.94759 7.54101 4.13688 7.62008 4.33458 7.62113L4.33858 6.87113ZM6.88058 7.63313C6.97907 7.63359 7.07669 7.61465 7.16786 7.57738C7.25903 7.54012 7.34197 7.48526 7.41193 7.41594C7.4819 7.34662 7.53753 7.2642 7.57565 7.17338C7.61377 7.08256 7.63362 6.98512 7.63408 6.88663C7.63454 6.78814 7.6156 6.69052 7.57833 6.59935C7.54106 6.50818 7.4862 6.42525 7.41688 6.35528C7.34757 6.28531 7.26514 6.22968 7.17433 6.19156C7.08351 6.15345 6.98607 6.13359 6.88758 6.13313L6.88058 7.63313ZM5.07558 4.32113C5.07505 4.22264 5.05514 4.12522 5.01696 4.03442C4.97878 3.94363 4.9231 3.86125 4.85308 3.79197C4.78307 3.7227 4.70009 3.6679 4.6089 3.63069C4.5177 3.59349 4.42007 3.57461 4.32158 3.57513C4.22309 3.57566 4.12566 3.59558 4.03487 3.63375C3.94408 3.67193 3.86169 3.72762 3.79242 3.79763C3.72315 3.86765 3.66835 3.95062 3.63114 4.04182C3.59393 4.13301 3.57505 4.23064 3.57558 4.32913L5.07558 4.32113ZM3.82758 10.7851C3.84195 10.6871 3.83676 10.5872 3.8123 10.4912C3.78785 10.3952 3.74462 10.305 3.68511 10.2258C3.6256 10.1466 3.55098 10.08 3.46558 10.0298C3.38017 9.97957 3.28566 9.94678 3.18752 9.93331C3.08937 9.91984 2.98952 9.92594 2.89375 9.95127C2.79797 9.9766 2.70817 10.0207 2.62951 10.0809C2.55086 10.1411 2.48492 10.2163 2.4355 10.3022C2.38608 10.3881 2.35416 10.4829 2.34158 10.5811L3.82758 10.7851ZM18.8626 5.13813C15.0426 1.31813 8.86958 1.27813 5.07458 5.07413L6.13458 6.13413C9.33458 2.93513 14.5576 2.95413 17.8026 6.19813L18.8626 5.13813ZM5.13858 18.8621C8.95858 22.6821 15.1316 22.7221 18.9266 18.9261L17.8666 17.8661C14.6666 21.0651 9.44358 21.0461 6.19858 17.8021L5.13858 18.8621ZM18.9266 18.9261C22.7216 15.1311 22.6826 8.95813 18.8626 5.13813L17.8026 6.19813C21.0466 9.44313 21.0656 14.6661 17.8666 17.8661L18.9266 18.9261ZM5.07458 5.07413L3.80758 6.34013L4.86858 7.40013L6.13458 6.13413L5.07458 5.07413ZM4.33458 7.62113L6.88058 7.63313L6.88758 6.13313L4.34258 6.12113L4.33458 7.62113ZM5.08858 6.86713L5.07558 4.32113L3.57558 4.32913L3.58858 6.87413L5.08858 6.86713ZM2.34058 10.5801C2.13496 12.0827 2.28053 13.6125 2.76584 15.0494C3.25115 16.4862 4.06298 17.791 5.13758 18.8611L6.19758 17.8011C5.28668 16.8945 4.59847 15.789 4.18707 14.5714C3.77566 13.3538 3.65226 12.0574 3.82658 10.7841L2.34058 10.5801Z" fill="#3671D9"/>
</g>
<defs>
<clipPath id="clip0_3404_32338">
<rect width="24" height="24" fill="white"/>
</clipPath>
</defs>
</svg>
