<svg width="36" height="36" viewBox="0 0 36 36" fill="none" xmlns="http://www.w3.org/2000/svg">
<mask id="mask0_3404_32383" style="mask-type:luminance" maskUnits="userSpaceOnUse" x="2" y="2" width="32" height="32">
<path d="M13.4863 8.97675L23.8386 3L27.2976 8.99175L13.4863 8.97675Z" stroke="white" stroke-width="2" stroke-linecap="round" stroke-linejoin="round"/>
<path d="M3 10.5C3 10.1022 3.15804 9.72064 3.43934 9.43934C3.72064 9.15804 4.10218 9 4.5 9H31.5C31.8978 9 32.2794 9.15804 32.5607 9.43934C32.842 9.72064 33 10.1022 33 10.5V31.5C33 31.8978 32.842 32.2794 32.5607 32.5607C32.2794 32.842 31.8978 33 31.5 33H4.5C4.10218 33 3.72064 32.842 3.43934 32.5607C3.15804 32.2794 3 31.8978 3 31.5V10.5Z" fill="white" stroke="white" stroke-width="2" stroke-linejoin="round"/>
<path d="M26.4375 24.75H33V17.25H26.4375C24.2625 17.25 22.5 18.9293 22.5 21C22.5 23.0707 24.2625 24.75 26.4375 24.75Z" fill="black" stroke="black" stroke-width="2" stroke-linejoin="round"/>
<path d="M33 12.375V30.375" stroke="white" stroke-width="2" stroke-linecap="round"/>
</mask>
<g mask="url(#mask0_3404_32383)">
<path d="M0 0H36V36H0V0Z" fill="white"/>
</g>
</svg>
