<svg width="24" height="24" viewBox="0 0 24 24" fill="none" xmlns="http://www.w3.org/2000/svg">
<path d="M4.19985 18.0732C4.19985 18.0732 4.10285 18.8282 4.19985 19.1872C4.26735 19.4362 4.33185 19.8557 4.58985 19.8557H6.03835C6.29635 19.8557 6.36085 19.4362 6.42835 19.1872C6.52535 18.8287 6.42835 18.0732 6.42835 18.0732" stroke="#050E2B" stroke-linecap="round" stroke-linejoin="round"/>
<path d="M19.5215 10.8301H4.4785C3.24773 10.8301 2.25 11.8278 2.25 13.0586V15.8446C2.25 17.0753 3.24773 18.0731 4.4785 18.0731H19.5215C20.7523 18.0731 21.75 17.0753 21.75 15.8446V13.0586C21.75 11.8278 20.7523 10.8301 19.5215 10.8301Z" stroke="#050E2B" stroke-linecap="round" stroke-linejoin="round"/>
<path d="M17.5714 18.0732C17.5714 18.0732 17.4744 18.8282 17.5714 19.1872C17.6389 19.4362 17.7034 19.8557 17.9614 19.8557H19.4099C19.6679 19.8557 19.7324 19.4362 19.7999 19.1872C19.8969 18.8287 19.7999 18.0732 19.7999 18.0732" stroke="#050E2B" stroke-linecap="round" stroke-linejoin="round"/>
<path d="M5.3147 15.8447C5.93022 15.8447 6.4292 15.3457 6.4292 14.7302C6.4292 14.1147 5.93022 13.6157 5.3147 13.6157C4.69917 13.6157 4.2002 14.1147 4.2002 14.7302C4.2002 15.3457 4.69917 15.8447 5.3147 15.8447Z" stroke="#050E2B" stroke-linecap="round" stroke-linejoin="round"/>
<path d="M4.47852 10.83L5.76002 5.81554C5.97902 4.95904 6.93652 4.14404 7.82152 4.14404H16.1785C17.0635 4.14404 18.021 4.95904 18.24 5.81554L19.5215 10.83" stroke="#050E2B" stroke-linecap="round" stroke-linejoin="round"/>
<path d="M18.6853 15.8447C19.3008 15.8447 19.7998 15.3457 19.7998 14.7302C19.7998 14.1147 19.3008 13.6157 18.6853 13.6157C18.0698 13.6157 17.5708 14.1147 17.5708 14.7302C17.5708 15.3457 18.0698 15.8447 18.6853 15.8447Z" stroke="#050E2B" stroke-linecap="round" stroke-linejoin="round"/>
</svg>
