<svg width="24" height="24" viewBox="0 0 24 24" fill="none" xmlns="http://www.w3.org/2000/svg">
<path d="M4.19985 18.0732C4.19985 18.0732 4.10285 18.8282 4.19985 19.1872C4.26735 19.4362 4.33185 19.8557 4.58985 19.8557H6.03835C6.29635 19.8557 6.36085 19.4362 6.42835 19.1872C6.52535 18.8287 6.42835 18.0732 6.42835 18.0732" stroke="#050E2B" stroke-linecap="round" stroke-linejoin="round"/>
<path d="M19.5215 10.8301H4.4785C3.24773 10.8301 2.25 11.8278 2.25 13.0586V15.8446C2.25 17.0753 3.24773 18.0731 4.4785 18.0731H19.5215C20.7523 18.0731 21.75 17.0753 21.75 15.8446V13.0586C21.75 11.8278 20.7523 10.8301 19.5215 10.8301Z" stroke="#050E2B" stroke-linecap="round" stroke-linejoin="round"/>
<path d="M17.5714 18.0732C17.5714 18.0732 17.4744 18.8282 17.5714 19.1872C17.6389 19.4362 17.7034 19.8557 17.9614 19.8557H19.4099C19.6679 19.8557 19.7324 19.4362 19.7999 19.1872C19.8969 18.8287 19.7999 18.0732 19.7999 18.0732" stroke="#050E2B" stroke-linecap="round" stroke-linejoin="round"/>
<path d="M5.3147 15.8447C5.93022 15.8447 6.4292 15.3457 6.4292 14.7302C6.4292 14.1147 5.93022 13.6157 5.3147 13.6157C4.69917 13.6157 4.2002 14.1147 4.2002 14.7302C4.2002 15.3457 4.69917 15.8447 5.3147 15.8447Z" stroke="#050E2B" stroke-linecap="round" stroke-linejoin="round"/>
<path d="M4.47852 10.83L5.76002 5.81554C5.97902 4.95904 6.93652 4.14404 7.82152 4.14404H15.2618M19 8L19.5215 10.83" stroke="#050E2B" stroke-linecap="round" stroke-linejoin="round"/>
<path d="M18.6853 15.8447C19.3008 15.8447 19.7998 15.3457 19.7998 14.7302C19.7998 14.1147 19.3008 13.6157 18.6853 13.6157C18.0698 13.6157 17.5708 14.1147 17.5708 14.7302C17.5708 15.3457 18.0698 15.8447 18.6853 15.8447Z" stroke="#050E2B" stroke-linecap="round" stroke-linejoin="round"/>
<path d="M15 4.00711C15 3.28242 15.1812 2.61101 15.54 1.99645C15.8988 1.38188 16.3854 0.895204 17 0.536412C17.6146 0.17762 18.2824 0 19.0036 0C19.5435 0 20.0622 0.106572 20.556 0.316163C21.0497 0.525755 21.4725 0.813499 21.8313 1.16874C22.1901 1.52398 22.4742 1.95027 22.6838 2.4476C22.8934 2.94494 23 3.46004 23 4.00711C23 4.54707 22.8934 5.06572 22.6838 5.5595C22.4742 6.05329 22.1865 6.47957 21.8313 6.83481C21.476 7.19005 21.0497 7.47425 20.556 7.68384C20.0622 7.89343 19.5471 8 19.0036 8C18.46 8 17.9378 7.89343 17.444 7.68384C16.9503 7.47425 16.524 7.1865 16.1652 6.83126C15.8064 6.47602 15.5258 6.04973 15.3126 5.5595C15.0995 5.06927 15 4.55062 15 4.00711ZM15.881 4.00711C15.881 4.84902 16.1865 5.58082 16.8011 6.20249C17.4156 6.81705 18.1474 7.12256 19.0036 7.12256C19.5648 7.12256 20.087 6.98401 20.5631 6.70337C21.0391 6.42274 21.4227 6.04618 21.7034 5.56661C21.984 5.08703 22.1261 4.56838 22.1261 4.00711C22.1261 3.44583 21.984 2.92362 21.7034 2.44405C21.4227 1.96448 21.0426 1.58437 20.5631 1.30373C20.0835 1.02309 19.5648 0.884547 19.0036 0.884547C18.4423 0.884547 17.9201 1.02309 17.444 1.30373C16.968 1.58437 16.5844 1.96448 16.3002 2.44405C16.016 2.92362 15.881 3.44583 15.881 4.00711ZM18.6945 4.00711V1.64121C18.6945 1.5595 18.7229 1.48845 18.7798 1.43162C18.8366 1.37478 18.9076 1.34636 18.9893 1.34636C19.071 1.34636 19.1421 1.37478 19.1989 1.43162C19.2558 1.48845 19.2842 1.5595 19.2842 1.64121V3.49201L20.2718 2.93428C20.3428 2.89165 20.4174 2.88099 20.4956 2.90231C20.6128 2.93428 20.6341 2.97336 20.6732 3.04796C20.7158 3.11901 20.7229 3.19361 20.7016 3.27176C20.6803 3.34991 20.6341 3.41385 20.5631 3.45293L19.1847 4.2238C19.1311 4.27475 19.0597 4.30278 18.9858 4.30195C18.9471 4.30259 18.9086 4.29538 18.8727 4.28074C18.8369 4.2661 18.8043 4.24435 18.7771 4.21679C18.7499 4.18924 18.7285 4.15645 18.7143 4.12041C18.7001 4.08437 18.6934 4.04583 18.6945 4.00711Z" fill="#050E2B"/>
</svg>
