<svg width="44" height="44" viewBox="0 0 44 44" fill="none" xmlns="http://www.w3.org/2000/svg">
<path d="M19 12C16.38 12 14.25 14.13 14.25 16.75C14.25 19.32 16.26 21.4 18.88 21.49C18.96 21.48 19.04 21.48 19.1 21.49C19.12 21.49 19.13 21.49 19.15 21.49C19.16 21.49 19.16 21.49 19.17 21.49C21.73 21.4 23.74 19.32 23.75 16.75C23.75 14.13 21.62 12 19 12Z" fill="#90A3BF"/>
<path d="M24.0809 24.1499C21.2909 22.2899 16.7409 22.2899 13.9309 24.1499C12.6609 24.9999 11.9609 26.1499 11.9609 27.3799C11.9609 28.6099 12.6609 29.7499 13.9209 30.5899C15.3209 31.5299 17.1609 31.9999 19.0009 31.9999C20.8409 31.9999 22.6809 31.5299 24.0809 30.5899C25.3409 29.7399 26.0409 28.5999 26.0409 27.3599C26.0309 26.1299 25.3409 24.9899 24.0809 24.1499Z" fill="#90A3BF"/>
<path d="M29.9894 17.3401C30.1494 19.2801 28.7694 20.9801 26.8594 21.2101C26.8494 21.2101 26.8494 21.2101 26.8394 21.2101H26.8094C26.7494 21.2101 26.6894 21.2101 26.6394 21.2301C25.6694 21.2801 24.7794 20.9701 24.1094 20.4001C25.1394 19.4801 25.7294 18.1001 25.6094 16.6001C25.5394 15.7901 25.2594 15.0501 24.8394 14.4201C25.2194 14.2301 25.6594 14.1101 26.1094 14.0701C28.0694 13.9001 29.8194 15.3601 29.9894 17.3401Z" fill="#90A3BF"/>
<path d="M31.9902 26.5899C31.9102 27.5599 31.2902 28.3999 30.2502 28.9699C29.2502 29.5199 27.9902 29.7799 26.7402 29.7499C27.4602 29.0999 27.8802 28.2899 27.9602 27.4299C28.0602 26.1899 27.4702 24.9999 26.2902 24.0499C25.6202 23.5199 24.8402 23.0999 23.9902 22.7899C26.2002 22.1499 28.9802 22.5799 30.6902 23.9599C31.6102 24.6999 32.0802 25.6299 31.9902 26.5899Z" fill="#90A3BF"/>
<rect opacity="0.8" x="0.5" y="0.5" width="43" height="43" rx="21.5" stroke="#C3D4E9" stroke-opacity="0.4"/>
</svg>
