<svg width="44" height="44" viewBox="0 0 44 44" fill="none" xmlns="http://www.w3.org/2000/svg">
<path d="M15.374 16.026C15.5329 15.4439 15.8787 14.9302 16.3583 14.5641C16.8379 14.198 17.4246 13.9998 18.028 14H22.858C23.3362 14 23.8061 14.1247 24.2214 14.3618C24.6366 14.5989 24.9829 14.9402 25.226 15.352L27.734 19.598L29.917 20.144C30.512 20.2928 31.0402 20.6361 31.4176 21.1196C31.795 21.603 32 22.1987 32 22.812V24.5C32.0002 25.0231 31.8512 25.5354 31.5704 25.9768C31.2897 26.4182 30.8889 26.7704 30.415 26.992C30.2527 27.6833 29.8685 28.3025 29.3212 28.7548C28.7739 29.2072 28.0935 29.468 27.384 29.4972C26.6745 29.5265 25.9749 29.3226 25.3922 28.9168C24.8095 28.511 24.3756 27.9256 24.157 27.25H19.343C19.1147 27.9545 18.6528 28.56 18.0336 28.9662C17.4144 29.3724 16.6751 29.5551 15.9379 29.4839C15.2008 29.4128 14.5101 29.0921 13.98 28.5749C13.4499 28.0578 13.1123 27.3752 13.023 26.64C12.7036 26.3822 12.4459 26.0563 12.2689 25.686C12.0919 25.3157 12 24.9104 12 24.5V22.25C12.0001 21.5775 12.2466 20.9284 12.6929 20.4253C13.1392 19.9223 13.7543 19.6002 14.422 19.52L15.374 16.026ZM24.038 25.75C24.1487 25.0352 24.4947 24.3777 25.0213 23.8818C25.5478 23.3858 26.2248 23.0796 26.9449 23.0118C27.6651 22.944 28.3873 23.1183 28.9971 23.5072C29.607 23.8962 30.0697 24.4774 30.312 25.159C30.432 24.968 30.5 24.742 30.5 24.5V22.812C30.5001 22.5332 30.4069 22.2623 30.2353 22.0425C30.0637 21.8227 29.8235 21.6666 29.553 21.599L27.156 21H14.75C14.06 21 13.5 21.56 13.5 22.25V24.517C13.8527 23.9567 14.3681 23.5175 14.9773 23.2581C15.5864 22.9987 16.2603 22.9316 16.9086 23.0657C17.557 23.1998 18.1489 23.5287 18.6052 24.0084C19.0616 24.4881 19.3605 25.0958 19.462 25.75H24.038ZM21 19.5H25.934L23.934 16.114C23.8235 15.927 23.6661 15.772 23.4774 15.6643C23.2887 15.5567 23.0752 15.5 22.858 15.5H21V19.5ZM19.5 15.5H18.028C17.7538 15.5 17.4872 15.5901 17.2693 15.7566C17.0513 15.923 16.8942 16.1565 16.822 16.421L15.982 19.5H19.5V15.5ZM16.25 24.5C15.7859 24.5 15.3408 24.6844 15.0126 25.0126C14.6844 25.3408 14.5 25.7859 14.5 26.25C14.5 26.7141 14.6844 27.1592 15.0126 27.4874C15.3408 27.8156 15.7859 28 16.25 28C16.7141 28 17.1592 27.8156 17.4874 27.4874C17.8156 27.1592 18 26.7141 18 26.25C18 25.7859 17.8156 25.3408 17.4874 25.0126C17.1592 24.6844 16.7141 24.5 16.25 24.5ZM25.5 26.25C25.5 26.7141 25.6844 27.1592 26.0126 27.4874C26.3408 27.8156 26.7859 28 27.25 28C27.7141 28 28.1592 27.8156 28.4874 27.4874C28.8156 27.1592 29 26.7141 29 26.25C29 25.7859 28.8156 25.3408 28.4874 25.0126C28.1592 24.6844 27.7141 24.5 27.25 24.5C26.7859 24.5 26.3408 24.6844 26.0126 25.0126C25.6844 25.3408 25.5 25.7859 25.5 26.25Z" fill="#90A3BF"/>
<rect opacity="0.8" x="0.5" y="0.5" width="43" height="43" rx="21.5" stroke="#C3D4E9" stroke-opacity="0.4"/>
</svg>
