<svg width="44" height="44" viewBox="0 0 44 44" fill="none" xmlns="http://www.w3.org/2000/svg">
<path d="M32.34 19.33L30.34 18.33C29.97 18.15 29.51 18.29 29.33 18.66C29.14 19.04 29.29 19.49 29.66 19.67L31.25 20.46V25.25L27.5 25.26V15C27.5 13 26.16 12 24.5 12H16.5C14.84 12 13.5 13 13.5 15V31.25H12C11.59 31.25 11.25 31.59 11.25 32C11.25 32.41 11.59 32.75 12 32.75H29C29.41 32.75 29.75 32.41 29.75 32C29.75 31.59 29.41 31.25 29 31.25H27.5V26.76L32 26.75C32.42 26.75 32.75 26.41 32.75 26V20C32.75 19.72 32.59 19.46 32.34 19.33ZM16 16.89C16 15.5 16.85 15 17.89 15H23.12C24.15 15 25 15.5 25 16.89V18.12C25 19.5 24.15 20 23.11 20H17.89C16.85 20 16 19.5 16 18.11V16.89ZM16.5 22.25H19.5C19.91 22.25 20.25 22.59 20.25 23C20.25 23.41 19.91 23.75 19.5 23.75H16.5C16.09 23.75 15.75 23.41 15.75 23C15.75 22.59 16.09 22.25 16.5 22.25Z" fill="#90A3BF"/>
<rect opacity="0.8" x="0.5" y="0.5" width="43" height="43" rx="21.5" stroke="#C3D4E9" stroke-opacity="0.4"/>
</svg>
