<svg width="20" height="20" viewBox="0 0 20 20" fill="none" xmlns="http://www.w3.org/2000/svg">
<path d="M16.0081 5.29977C15.1414 3.54977 13.4664 2.2581 11.5248 1.8331C9.49144 1.3831 7.40811 1.86643 5.81644 3.14976C4.21644 4.42476 3.30811 6.3331 3.30811 8.37476C3.30811 10.5331 4.59977 12.7914 6.54977 14.0998V14.7914C6.54144 15.0248 6.53311 15.3831 6.81644 15.6748C7.10811 15.9748 7.54144 16.0081 7.88311 16.0081H12.1581C12.6081 16.0081 12.9498 15.8831 13.1831 15.6498C13.4998 15.3248 13.4914 14.9081 13.4831 14.6831V14.0998C16.0664 12.3581 17.6914 8.6831 16.0081 5.29977Z" fill="#FFAA17"/>
<path d="M12.7165 18.3332C12.6665 18.3332 12.6081 18.3248 12.5581 18.3082C10.8831 17.8332 9.1248 17.8332 7.4498 18.3082C7.14147 18.3915 6.81647 18.2165 6.73314 17.9082C6.64147 17.5998 6.8248 17.2748 7.13314 17.1915C9.01647 16.6582 10.9998 16.6582 12.8831 17.1915C13.1915 17.2832 13.3748 17.5998 13.2831 17.9082C13.1998 18.1665 12.9665 18.3332 12.7165 18.3332Z" fill="#FFAA17"/>
</svg>
