<svg width="97" height="20" viewBox="0 0 97 20" fill="none" xmlns="http://www.w3.org/2000/svg">
    <path
        d="M9.128 19.288C7.848 19.288 6.664 19.056 5.576 18.592C4.504 18.128 3.56 17.48 2.744 16.648C1.944 15.816 1.32 14.84 0.872 13.72C0.424 12.6 0.2 11.376 0.2 10.048C0.2 8.72 0.416 7.496 0.848 6.376C1.296 5.24 1.92 4.264 2.72 3.448C3.536 2.616 4.488 1.976 5.576 1.528C6.664 1.064 7.848 0.831999 9.128 0.831999C10.408 0.831999 11.552 1.048 12.56 1.48C13.584 1.912 14.448 2.488 15.152 3.208C15.856 3.912 16.36 4.688 16.664 5.536L13.736 6.904C13.4 6.008 12.832 5.272 12.032 4.696C11.232 4.104 10.264 3.808 9.128 3.808C8.008 3.808 7.016 4.072 6.152 4.6C5.304 5.128 4.64 5.856 4.16 6.784C3.696 7.712 3.464 8.8 3.464 10.048C3.464 11.296 3.696 12.392 4.16 13.336C4.64 14.264 5.304 14.992 6.152 15.52C7.016 16.048 8.008 16.312 9.128 16.312C10.264 16.312 11.232 16.024 12.032 15.448C12.832 14.856 13.4 14.112 13.736 13.216L16.664 14.584C16.36 15.432 15.856 16.216 15.152 16.936C14.448 17.64 13.584 18.208 12.56 18.64C11.552 19.072 10.408 19.288 9.128 19.288ZM17.8499 19L24.0179 1.12H28.2419L34.4099 19H30.8579L29.5859 15.16H22.6739L21.3779 19H17.8499ZM23.6099 12.28H28.6499L25.6739 3.376H26.5859L23.6099 12.28ZM36.3999 19V1.12H43.0479C44.2639 1.12 45.3359 1.344 46.2639 1.792C47.2079 2.224 47.9439 2.864 48.4719 3.712C48.9999 4.544 49.2639 5.56 49.2639 6.76C49.2639 7.992 48.9679 9.04 48.3759 9.904C47.7999 10.768 47.0159 11.408 46.0239 11.824L50.1279 19H46.4319L42.0399 11.152L44.1519 12.4H39.6639V19H36.3999ZM39.6639 9.52H43.0959C43.6879 9.52 44.1999 9.408 44.6319 9.184C45.0639 8.944 45.3999 8.616 45.6399 8.2C45.8799 7.784 45.9999 7.304 45.9999 6.76C45.9999 6.2 45.8799 5.72 45.6399 5.32C45.3999 4.904 45.0639 4.584 44.6319 4.36C44.1999 4.12 43.6879 4 43.0959 4H39.6639V9.52ZM59.1311 19.288C58.1871 19.288 57.3151 19.104 56.5151 18.736C55.7311 18.352 55.1071 17.808 54.6431 17.104L54.9551 16.48V19H52.0031V0.831999H55.1471V8.536L54.6671 7.888C55.1151 7.184 55.7231 6.64 56.4911 6.256C57.2591 5.856 58.1471 5.656 59.1551 5.656C60.3871 5.656 61.4991 5.96 62.4911 6.568C63.4831 7.176 64.2671 7.992 64.8431 9.016C65.4351 10.04 65.7311 11.192 65.7311 12.472C65.7311 13.736 65.4431 14.888 64.8671 15.928C64.2911 16.968 63.5071 17.792 62.5151 18.4C61.5231 18.992 60.3951 19.288 59.1311 19.288ZM58.7711 16.408C59.4911 16.408 60.1311 16.24 60.6911 15.904C61.2511 15.568 61.6831 15.104 61.9871 14.512C62.3071 13.92 62.4671 13.24 62.4671 12.472C62.4671 11.704 62.3071 11.032 61.9871 10.456C61.6831 9.864 61.2511 9.4 60.6911 9.064C60.1311 8.712 59.4911 8.536 58.7711 8.536C58.0831 8.536 57.4591 8.704 56.8991 9.04C56.3551 9.376 55.9231 9.848 55.6031 10.456C55.2991 11.048 55.1471 11.72 55.1471 12.472C55.1471 13.24 55.2991 13.92 55.6031 14.512C55.9231 15.104 56.3551 15.568 56.8991 15.904C57.4591 16.24 58.0831 16.408 58.7711 16.408ZM68.1281 19V5.944H71.0801V8.512L70.8401 8.056C71.1441 7.272 71.6401 6.68 72.3281 6.28C73.0321 5.864 73.8481 5.656 74.7761 5.656C75.7361 5.656 76.5841 5.864 77.3201 6.28C78.0721 6.696 78.6561 7.28 79.0721 8.032C79.4881 8.768 79.6961 9.624 79.6961 10.6V19H76.5521V11.344C76.5521 10.768 76.4401 10.272 76.2161 9.856C75.9921 9.44 75.6801 9.12 75.2801 8.896C74.8961 8.656 74.4401 8.536 73.9121 8.536C73.4001 8.536 72.9441 8.656 72.5441 8.896C72.1441 9.12 71.8321 9.44 71.6081 9.856C71.3841 10.272 71.2721 10.768 71.2721 11.344V19H68.1281ZM89.4826 19.288C88.5386 19.288 87.6666 19.104 86.8666 18.736C86.0826 18.352 85.4586 17.808 84.9946 17.104L85.3066 16.48V19H82.3546V0.831999H85.4986V8.536L85.0186 7.888C85.4666 7.184 86.0746 6.64 86.8426 6.256C87.6106 5.856 88.4986 5.656 89.5066 5.656C90.7386 5.656 91.8506 5.96 92.8426 6.568C93.8346 7.176 94.6186 7.992 95.1946 9.016C95.7866 10.04 96.0826 11.192 96.0826 12.472C96.0826 13.736 95.7946 14.888 95.2186 15.928C94.6426 16.968 93.8586 17.792 92.8666 18.4C91.8746 18.992 90.7466 19.288 89.4826 19.288ZM89.1226 16.408C89.8426 16.408 90.4826 16.24 91.0426 15.904C91.6026 15.568 92.0346 15.104 92.3386 14.512C92.6586 13.92 92.8186 13.24 92.8186 12.472C92.8186 11.704 92.6586 11.032 92.3386 10.456C92.0346 9.864 91.6026 9.4 91.0426 9.064C90.4826 8.712 89.8426 8.536 89.1226 8.536C88.4346 8.536 87.8106 8.704 87.2506 9.04C86.7066 9.376 86.2746 9.848 85.9546 10.456C85.6506 11.048 85.4986 11.72 85.4986 12.472C85.4986 13.24 85.6506 13.92 85.9546 14.512C86.2746 15.104 86.7066 15.568 87.2506 15.904C87.8106 16.24 88.4346 16.408 89.1226 16.408Z"
        fill="#3563E9" />
</svg>
