<svg width="24" height="24" viewBox="0 0 24 24" fill="none" xmlns="http://www.w3.org/2000/svg">
<path d="M9.2499 10.5303C9.2499 10.5303 9.20948 10.8449 9.2499 10.9944C9.27802 11.0982 9.3049 11.273 9.4124 11.273H10.0159C10.1234 11.273 10.1503 11.0982 10.1784 10.9944C10.2189 10.8451 10.1784 10.5303 10.1784 10.5303" stroke="#050E2B" stroke-width="0.5" stroke-linecap="round" stroke-linejoin="round"/>
<path d="M15.634 7.5127H9.36604C8.85322 7.5127 8.4375 7.92842 8.4375 8.44124V9.60207C8.4375 10.1149 8.85322 10.5306 9.36604 10.5306H15.634C16.1468 10.5306 16.5625 10.1149 16.5625 9.60207V8.44124C16.5625 7.92842 16.1468 7.5127 15.634 7.5127Z" stroke="#050E2B" stroke-width="0.5" stroke-linecap="round" stroke-linejoin="round"/>
<path d="M14.8217 10.5303C14.8217 10.5303 14.7813 10.8449 14.8217 10.9944C14.8498 11.0982 14.8767 11.273 14.9842 11.273H15.5877C15.6952 11.273 15.7221 11.0982 15.7502 10.9944C15.7906 10.8451 15.7502 10.5303 15.7502 10.5303" stroke="#050E2B" stroke-width="0.5" stroke-linecap="round" stroke-linejoin="round"/>
<path d="M9.71438 9.60209C9.97084 9.60209 10.1788 9.39418 10.1788 9.13771C10.1788 8.88125 9.97084 8.67334 9.71438 8.67334C9.45791 8.67334 9.25 8.88125 9.25 9.13771C9.25 9.39418 9.45791 9.60209 9.71438 9.60209Z" stroke="#050E2B" stroke-width="0.5" stroke-linecap="round" stroke-linejoin="round"/>
<path d="M9.36621 7.5124L9.90017 5.42302C9.99142 5.06615 10.3904 4.72656 10.7591 4.72656H14.2412C14.61 4.72656 15.0089 5.06615 15.1002 5.42302L15.6341 7.5124" stroke="#050E2B" stroke-width="0.5" stroke-linecap="round" stroke-linejoin="round"/>
<path d="M15.2857 9.60209C15.5421 9.60209 15.75 9.39418 15.75 9.13771C15.75 8.88125 15.5421 8.67334 15.2857 8.67334C15.0292 8.67334 14.8213 8.88125 14.8213 9.13771C14.8213 9.39418 15.0292 9.60209 15.2857 9.60209Z" stroke="#050E2B" stroke-width="0.5" stroke-linecap="round" stroke-linejoin="round"/>
<path d="M3.2499 18.5303C3.2499 18.5303 3.20948 18.8449 3.2499 18.9944C3.27802 19.0982 3.3049 19.273 3.4124 19.273H4.01594C4.12344 19.273 4.15031 19.0982 4.17844 18.9944C4.21886 18.8451 4.17844 18.5303 4.17844 18.5303" stroke="#050E2B" stroke-width="0.5" stroke-linecap="round" stroke-linejoin="round"/>
<path d="M9.63396 15.5127H3.36604C2.85322 15.5127 2.4375 15.9284 2.4375 16.4412V17.6021C2.4375 18.1149 2.85322 18.5306 3.36604 18.5306H9.63396C10.1468 18.5306 10.5625 18.1149 10.5625 17.6021V16.4412C10.5625 15.9284 10.1468 15.5127 9.63396 15.5127Z" stroke="#050E2B" stroke-width="0.5" stroke-linecap="round" stroke-linejoin="round"/>
<path d="M8.82167 18.5303C8.82167 18.5303 8.78126 18.8449 8.82167 18.9944C8.8498 19.0982 8.87667 19.273 8.98417 19.273H9.58772C9.69522 19.273 9.72209 19.0982 9.75021 18.9944C9.79063 18.8451 9.75021 18.5303 9.75021 18.5303" stroke="#050E2B" stroke-width="0.5" stroke-linecap="round" stroke-linejoin="round"/>
<path d="M3.71438 17.6021C3.97084 17.6021 4.17875 17.3942 4.17875 17.1377C4.17875 16.8812 3.97084 16.6733 3.71438 16.6733C3.45791 16.6733 3.25 16.8812 3.25 17.1377C3.25 17.3942 3.45791 17.6021 3.71438 17.6021Z" stroke="#050E2B" stroke-width="0.5" stroke-linecap="round" stroke-linejoin="round"/>
<path d="M3.36621 15.5124L3.90017 13.423C3.99142 13.0661 4.39038 12.7266 4.75913 12.7266H8.24121C8.60996 12.7266 9.00892 13.0661 9.10017 13.423L9.63413 15.5124" stroke="#050E2B" stroke-width="0.5" stroke-linecap="round" stroke-linejoin="round"/>
<path d="M9.28566 17.6021C9.54213 17.6021 9.75004 17.3942 9.75004 17.1377C9.75004 16.8812 9.54213 16.6733 9.28566 16.6733C9.0292 16.6733 8.82129 16.8812 8.82129 17.1377C8.82129 17.3942 9.0292 17.6021 9.28566 17.6021Z" stroke="#050E2B" stroke-width="0.5" stroke-linecap="round" stroke-linejoin="round"/>
<path d="M14.2499 18.5303C14.2499 18.5303 14.2095 18.8449 14.2499 18.9944C14.278 19.0982 14.3049 19.273 14.4124 19.273H15.0159C15.1234 19.273 15.1503 19.0982 15.1784 18.9944C15.2189 18.8451 15.1784 18.5303 15.1784 18.5303" stroke="#050E2B" stroke-width="0.5" stroke-linecap="round" stroke-linejoin="round"/>
<path d="M20.634 15.5127H14.366C13.8532 15.5127 13.4375 15.9284 13.4375 16.4412V17.6021C13.4375 18.1149 13.8532 18.5306 14.366 18.5306H20.634C21.1468 18.5306 21.5625 18.1149 21.5625 17.6021V16.4412C21.5625 15.9284 21.1468 15.5127 20.634 15.5127Z" stroke="#050E2B" stroke-width="0.5" stroke-linecap="round" stroke-linejoin="round"/>
<path d="M19.8217 18.5303C19.8217 18.5303 19.7813 18.8449 19.8217 18.9944C19.8498 19.0982 19.8767 19.273 19.9842 19.273H20.5877C20.6952 19.273 20.7221 19.0982 20.7502 18.9944C20.7906 18.8451 20.7502 18.5303 20.7502 18.5303" stroke="#050E2B" stroke-width="0.5" stroke-linecap="round" stroke-linejoin="round"/>
<path d="M14.7144 17.6021C14.9708 17.6021 15.1788 17.3942 15.1788 17.1377C15.1788 16.8812 14.9708 16.6733 14.7144 16.6733C14.4579 16.6733 14.25 16.8812 14.25 17.1377C14.25 17.3942 14.4579 17.6021 14.7144 17.6021Z" stroke="#050E2B" stroke-width="0.5" stroke-linecap="round" stroke-linejoin="round"/>
<path d="M14.3662 15.5124L14.9002 13.423C14.9914 13.0661 15.3904 12.7266 15.7591 12.7266H19.2412C19.61 12.7266 20.0089 13.0661 20.1002 13.423L20.6341 15.5124" stroke="#050E2B" stroke-width="0.5" stroke-linecap="round" stroke-linejoin="round"/>
<path d="M20.2857 17.6021C20.5421 17.6021 20.75 17.3942 20.75 17.1377C20.75 16.8812 20.5421 16.6733 20.2857 16.6733C20.0292 16.6733 19.8213 16.8812 19.8213 17.1377C19.8213 17.3942 20.0292 17.6021 20.2857 17.6021Z" stroke="#050E2B" stroke-width="0.5" stroke-linecap="round" stroke-linejoin="round"/>
</svg>
