<svg width="64" height="64" viewBox="0 0 64 64" fill="none" xmlns="http://www.w3.org/2000/svg">
    <path
        d="M53.4932 27.04C54.9866 28.2667 57.1732 28.16 58.5332 26.8C60.1066 25.2267 59.9999 22.6134 58.2666 21.2C48.6932 13.36 36.3999 10.4534 24.7999 12.5067L31.7066 19.4134C39.4132 19.3334 47.1732 21.8667 53.4932 27.04ZM47.4399 31.92C45.3599 30.4 43.0932 29.2534 40.7199 28.4534L48.5866 36.32C49.2266 34.7734 48.8532 32.9334 47.4399 31.92ZM37.1999 43.28C35.5869 42.4518 33.7998 42.0198 31.9866 42.0198C30.1734 42.0198 28.3862 42.4518 26.7732 43.28C25.1999 44.1067 24.9066 46.2667 26.1599 47.52L30.0799 51.44C31.1199 52.48 32.7999 52.48 33.8399 51.44L37.7599 47.52C39.0666 46.2667 38.7999 44.1067 37.1999 43.28ZM52.4799 47.7334L10.9866 6.24003C10.7397 5.99314 10.4466 5.7973 10.124 5.66369C9.80144 5.53007 9.45571 5.4613 9.10657 5.4613C8.75742 5.4613 8.41169 5.53007 8.08912 5.66369C7.76655 5.7973 7.47345 5.99314 7.22657 6.24003C6.97968 6.48691 6.78384 6.78001 6.65023 7.10258C6.51662 7.42515 6.44785 7.77088 6.44785 8.12003C6.44785 8.46917 6.51662 8.8149 6.65023 9.13747C6.78384 9.46005 6.97968 9.75314 7.22657 10L13.4666 16.2667C10.7732 17.6 8.1599 19.2267 5.7599 21.2C5.35265 21.536 5.02014 21.9533 4.78373 22.4254C4.54731 22.8974 4.41221 23.4137 4.3871 23.941C4.36199 24.4683 4.44742 24.9951 4.63791 25.4875C4.8284 25.9798 5.11975 26.4269 5.49323 26.8C6.85323 28.16 9.01323 28.2934 10.4799 27.0667C13.1466 24.88 16.0799 23.1734 19.1466 21.92L25.0932 27.8667C22.0799 28.6667 19.1999 30 16.5866 31.8934C14.7466 33.2267 14.6399 35.92 16.2399 37.52L16.2666 37.5467C17.5732 38.8534 19.6266 38.9867 21.1466 37.8934C24.254 35.7177 27.9405 34.5198 31.7332 34.4534L48.7199 51.44C49.7599 52.48 51.4399 52.48 52.4799 51.44C53.5199 50.4534 53.5199 48.7734 52.4799 47.7334Z"
        fill="#54A6FF" />
</svg>
