<svg width="44" height="44" viewBox="0 0 44 44" fill="none" xmlns="http://www.w3.org/2000/svg">
<path d="M14.5 18C13.9696 18 13.4609 17.7893 13.0858 17.4142C12.7107 17.0391 12.5 16.5304 12.5 16C12.5 15.4696 12.7107 14.9609 13.0858 14.5858C13.4609 14.2107 13.9696 14 14.5 14C15.0304 14 15.5391 14.2107 15.9142 14.5858C16.2893 14.9609 16.5 15.4696 16.5 16C16.5 16.5304 16.2893 17.0391 15.9142 17.4142C15.5391 17.7893 15.0304 18 14.5 18ZM14.5 18V26M21.5 18C20.9696 18 20.4609 17.7893 20.0858 17.4142C19.7107 17.0391 19.5 16.5304 19.5 16C19.5 15.4696 19.7107 14.9609 20.0858 14.5858C20.4609 14.2107 20.9696 14 21.5 14C22.0304 14 22.5391 14.2107 22.9142 14.5858C23.2893 14.9609 23.5 15.4696 23.5 16C23.5 16.5304 23.2893 17.0391 22.9142 17.4142C22.5391 17.7893 22.0304 18 21.5 18ZM21.5 18V26M14.5 26C15.0304 26 15.5391 26.2107 15.9142 26.5858C16.2893 26.9609 16.5 27.4696 16.5 28C16.5 28.5304 16.2893 29.0391 15.9142 29.4142C15.5391 29.7893 15.0304 30 14.5 30C13.9696 30 13.4609 29.7893 13.0858 29.4142C12.7107 29.0391 12.5 28.5304 12.5 28C12.5 27.4696 12.7107 26.9609 13.0858 26.5858C13.4609 26.2107 13.9696 26 14.5 26ZM21.5 26C22.0304 26 22.5391 26.2107 22.9142 26.5858C23.2893 26.9609 23.5 27.4696 23.5 28C23.5 28.5304 23.2893 29.0391 22.9142 29.4142C22.5391 29.7893 22.0304 30 21.5 30C20.9696 30 20.4609 29.7893 20.0858 29.4142C19.7107 29.0391 19.5 28.5304 19.5 28C19.5 27.4696 19.7107 26.9609 20.0858 26.5858C20.4609 26.2107 20.9696 26 21.5 26ZM26.5 16C26.5 16.5304 26.7107 17.0391 27.0858 17.4142C27.4609 17.7893 27.9696 18 28.5 18C29.0304 18 29.5391 17.7893 29.9142 17.4142C30.2893 17.0391 30.5 16.5304 30.5 16C30.5 15.4696 30.2893 14.9609 29.9142 14.5858C29.5391 14.2107 29.0304 14 28.5 14C27.9696 14 27.4609 14.2107 27.0858 14.5858C26.7107 14.9609 26.5 15.4696 26.5 16Z" stroke="#90A3BF" stroke-width="2" stroke-linecap="round" stroke-linejoin="round"/>
<path d="M28.5 18V20C28.5 20.5304 28.2893 21.0391 27.9142 21.4142C27.5391 21.7893 27.0304 22 26.5 22H14.5" stroke="#90A3BF" stroke-width="2" stroke-linecap="round" stroke-linejoin="round"/>
<rect opacity="0.8" x="0.5" y="0.5" width="43" height="43" rx="21.5" stroke="#C3D4E9" stroke-opacity="0.4"/>
</svg>
