<svg width="109" height="100" viewBox="0 0 109 100" fill="none" xmlns="http://www.w3.org/2000/svg">
    <rect x="2.86865" y="2" width="103.336" height="96" rx="14" fill="white" />
    <rect x="2.86865" y="2" width="103.336" height="96" rx="14" stroke="#CBD0DC" stroke-width="4"
        stroke-dasharray="18.69 18.69" />
    <path fill-rule="evenodd" clip-rule="evenodd"
        d="M54.5365 53.906C54.7437 53.906 54.9424 53.8237 55.0889 53.6772C55.2355 53.5307 55.3178 53.332 55.3178 53.1248V41.6946L57.0678 43.7373C57.2026 43.8947 57.3944 43.9922 57.6011 44.0082C57.8078 44.0242 58.0124 43.9575 58.1698 43.8227C58.3273 43.6879 58.4248 43.496 58.4408 43.2893C58.4568 43.0827 58.3901 42.8781 58.2553 42.7206L55.1303 39.0748C55.0569 38.989 54.9659 38.9201 54.8634 38.8729C54.7609 38.8257 54.6494 38.8013 54.5365 38.8013C54.4237 38.8013 54.3122 38.8257 54.2097 38.8729C54.1072 38.9201 54.0161 38.989 53.9428 39.0748L50.8178 42.7206C50.751 42.7986 50.7003 42.8889 50.6684 42.9865C50.6366 43.0841 50.6243 43.187 50.6322 43.2893C50.6402 43.3917 50.6682 43.4914 50.7147 43.583C50.7611 43.6745 50.8252 43.7559 50.9032 43.8227C50.9812 43.8894 51.0715 43.9402 51.1691 43.972C51.2667 44.0039 51.3696 44.0162 51.4719 44.0082C51.5742 44.0003 51.674 43.9723 51.7655 43.9258C51.857 43.8793 51.9385 43.8152 52.0053 43.7373L53.7553 41.6956V53.1248C53.7553 53.556 54.1053 53.906 54.5365 53.906Z"
        fill="#90A3BF" />
    <path
        d="M58.7035 46.875C57.9722 46.875 57.6066 46.875 57.343 47.051C57.2297 47.1269 57.1324 47.2242 57.0566 47.3375C56.8805 47.601 56.8805 47.9667 56.8805 48.6979V53.125C56.8805 53.7466 56.6336 54.3427 56.1941 54.7823C55.7545 55.2218 55.1584 55.4688 54.5368 55.4688C53.9152 55.4688 53.319 55.2218 52.8795 54.7823C52.44 54.3427 52.193 53.7466 52.193 53.125V48.6979C52.193 47.9667 52.193 47.601 52.017 47.3375C51.9412 47.2242 51.8438 47.1269 51.7305 47.051C51.467 46.875 51.1014 46.875 50.3701 46.875C47.4243 46.875 45.9503 46.875 45.0357 47.7906C44.1201 48.7052 44.1201 50.1771 44.1201 53.124V54.1656C44.1201 57.1135 44.1201 58.5854 45.0357 59.501C45.9503 60.4167 47.4243 60.4167 50.3701 60.4167H58.7035C61.6493 60.4167 63.1232 60.4167 64.0378 59.501C64.9524 58.5854 64.9534 57.1125 64.9534 54.1667V53.125C64.9534 50.1781 64.9534 48.7052 64.0378 47.7906C63.1232 46.875 61.6493 46.875 58.7035 46.875Z"
        fill="#90A3BF" />
</svg>
