<svg width="9" height="9" viewBox="0 0 9 9" fill="none" xmlns="http://www.w3.org/2000/svg">
    <path
        d="M4.5 1.12489C3.80381 1.12489 3.13613 1.40145 2.64384 1.89373C2.15156 2.38601 1.875 3.05369 1.875 3.74989C1.875 4.82314 2.54325 5.85851 3.27675 6.66064C3.6518 7.06925 4.06104 7.44511 4.5 7.78414C4.5655 7.73389 4.64237 7.67264 4.73062 7.60039C5.08305 7.31099 5.41474 6.99722 5.72325 6.66139C6.45675 5.85851 7.125 4.82351 7.125 3.74989C7.125 3.05369 6.84844 2.38601 6.35616 1.89373C5.86387 1.40145 5.19619 1.12489 4.5 1.12489ZM4.5 8.70514L4.28737 8.55889L4.28625 8.55814L4.284 8.55626L4.2765 8.55101L4.24838 8.53114L4.14713 8.45726C3.63407 8.07168 3.15745 7.63987 2.72325 7.16726C1.95675 6.32801 1.125 5.11339 1.125 3.74951C1.125 2.85441 1.48058 1.99596 2.11351 1.36303C2.74645 0.730091 3.60489 0.374512 4.5 0.374512C5.39511 0.374512 6.25355 0.730091 6.88649 1.36303C7.51942 1.99596 7.875 2.85441 7.875 3.74951C7.875 5.11339 7.04325 6.32839 6.27675 7.16651C5.84267 7.63911 5.36617 8.07091 4.85325 8.45651C4.81052 8.48843 4.76739 8.5198 4.72388 8.55064L4.716 8.55589L4.71375 8.55776L4.713 8.55814L4.5 8.70514ZM4.5 2.99989C4.30109 2.99989 4.11032 3.0789 3.96967 3.21956C3.82902 3.36021 3.75 3.55097 3.75 3.74989C3.75 3.9488 3.82902 4.13956 3.96967 4.28022C4.11032 4.42087 4.30109 4.49989 4.5 4.49989C4.69891 4.49989 4.88968 4.42087 5.03033 4.28022C5.17098 4.13956 5.25 3.9488 5.25 3.74989C5.25 3.55097 5.17098 3.36021 5.03033 3.21956C4.88968 3.0789 4.69891 2.99989 4.5 2.99989ZM3 3.74989C3 3.35206 3.15804 2.97053 3.43934 2.68923C3.72064 2.40792 4.10218 2.24989 4.5 2.24989C4.89782 2.24989 5.27936 2.40792 5.56066 2.68923C5.84196 2.97053 6 3.35206 6 3.74989C6 4.14771 5.84196 4.52924 5.56066 4.81055C5.27936 5.09185 4.89782 5.24989 4.5 5.24989C4.10218 5.24989 3.72064 5.09185 3.43934 4.81055C3.15804 4.52924 3 4.14771 3 3.74989Z"
        fill="#4F4F4F" />
</svg>
