<svg width="19" height="22" viewBox="0 0 19 22" fill="none" xmlns="http://www.w3.org/2000/svg">
    <path
        d="M9.68599 0.973877C12.0105 0.973877 14.2398 1.89729 15.8835 3.54097C17.5272 5.18465 18.4506 7.41397 18.4506 9.73848C18.4506 13.367 15.6849 17.1689 10.2703 21.2299C10.1017 21.3563 9.8967 21.4246 9.68599 21.4246C9.47528 21.4246 9.27026 21.3563 9.10169 21.2299C3.68711 17.1689 0.921387 13.367 0.921387 9.73848C0.921387 7.41397 1.8448 5.18465 3.48848 3.54097C5.13216 1.89729 7.36148 0.973877 9.68599 0.973877ZM9.68599 6.81695C8.91115 6.81695 8.16805 7.12475 7.62016 7.67265C7.07226 8.22054 6.76446 8.96364 6.76446 9.73848C6.76446 10.5133 7.07226 11.2564 7.62016 11.8043C8.16805 12.3522 8.91115 12.66 9.68599 12.66C10.4608 12.66 11.2039 12.3522 11.7518 11.8043C12.2997 11.2564 12.6075 10.5133 12.6075 9.73848C12.6075 8.96364 12.2997 8.22054 11.7518 7.67265C11.2039 7.12475 10.4608 6.81695 9.68599 6.81695Z"
        fill="#FF3636" />
</svg>
