<svg width="24" height="24" viewBox="0 0 24 24" fill="none" xmlns="http://www.w3.org/2000/svg">
<path d="M20.8912 2.006L20.9972 2L21.1272 2.008L21.2172 2.024L21.3402 2.059L21.4472 2.105L21.5472 2.162L21.6372 2.229L21.7192 2.304L21.7712 2.363L21.8532 2.479L21.9052 2.575C21.9518 2.675 21.9818 2.78033 21.9952 2.891L22.0002 2.997C22.0002 3.07233 21.9922 3.14567 21.9762 3.217L21.9412 3.34L15.4092 21.417C15.2854 21.6866 15.0868 21.9149 14.837 22.075C14.5873 22.2351 14.2968 22.3201 14.0002 22.32C13.7331 22.3206 13.4703 22.2521 13.2375 22.1212C13.0046 21.9903 12.8096 21.8015 12.6712 21.573L12.6062 21.446L9.25418 14.744L2.58418 11.408C2.33738 11.2951 2.12454 11.1194 1.96695 10.8985C1.80936 10.6775 1.71254 10.4191 1.68618 10.149L1.68018 10C1.68018 9.44 1.98118 8.928 2.52118 8.63L2.66118 8.56L20.6782 2.054L20.7842 2.024L20.8912 2.006Z" fill="#3563E9"/>
</svg>
