<svg width="24" height="24" viewBox="0 0 24 24" fill="none" xmlns="http://www.w3.org/2000/svg">
    <path
        d="M12.0002 0.75C9.76555 0.801174 7.64235 1.73618 6.0959 3.35011C4.54946 4.96403 3.70593 7.12521 3.75019 9.36C3.75019 12.75 7.78519 18.9225 10.1852 22.2975C10.388 22.5914 10.6591 22.8317 10.9752 22.9977C11.2914 23.1637 11.6431 23.2504 12.0002 23.2504C12.3573 23.2504 12.709 23.1637 13.0252 22.9977C13.3413 22.8317 13.6124 22.5914 13.8152 22.2975C16.2152 18.9225 20.2502 12.75 20.2502 9.36C20.2945 7.12521 19.4509 4.96403 17.9045 3.35011C16.358 1.73618 14.2348 0.801174 12.0002 0.75ZM12.0002 13.5C11.1102 13.5 10.2401 13.2361 9.50013 12.7416C8.7601 12.2471 8.18333 11.5443 7.84273 10.7221C7.50214 9.89981 7.41303 8.99501 7.58666 8.12209C7.76029 7.24918 8.18888 6.44736 8.81821 5.81802C9.44755 5.18868 10.2494 4.7601 11.1223 4.58647C11.9952 4.41283 12.9 4.50195 13.7223 4.84254C14.5445 5.18314 15.2473 5.75991 15.7418 6.49993C16.2363 7.23995 16.5002 8.10998 16.5002 9C16.5002 10.1935 16.0261 11.3381 15.1822 12.182C14.3383 13.0259 13.1937 13.5 12.0002 13.5Z"
        fill="#3563E9" />
</svg>
