<svg width="24" height="24" viewBox="0 0 24 24" fill="none" xmlns="http://www.w3.org/2000/svg">
    <path fill-rule="evenodd" clip-rule="evenodd"
        d="M2.78 11.25H4C4.19891 11.25 4.38968 11.329 4.53033 11.4697C4.67098 11.6103 4.75 11.8011 4.75 12C4.75 12.1989 4.67098 12.3897 4.53033 12.5303C4.38968 12.671 4.19891 12.75 4 12.75H2.78C2.93367 14.6813 3.69309 16.5147 4.95 17.989L5.97 16.969C6.11152 16.8324 6.301 16.7569 6.49765 16.7587C6.6943 16.7605 6.88237 16.8395 7.02136 16.9786C7.16035 17.1178 7.23914 17.3059 7.24076 17.5025C7.24237 17.6992 7.16669 17.8886 7.03 18.03L6.011 19.05C7.68099 20.4743 9.80515 21.2545 12 21.25C14.1948 21.2545 16.319 20.4743 17.989 19.05L16.969 18.03C16.8974 17.9608 16.8403 17.878 16.801 17.7865C16.7618 17.695 16.7411 17.5965 16.7403 17.4969C16.7395 17.3974 16.7585 17.2986 16.7963 17.2065C16.834 17.1143 16.8898 17.0306 16.9602 16.9602C17.0307 16.8898 17.1144 16.8342 17.2066 16.7965C17.2988 16.7588 17.3976 16.7399 17.4972 16.7408C17.5967 16.7417 17.6951 16.7625 17.7866 16.8018C17.8781 16.8412 17.9608 16.8983 18.03 16.97L19.05 17.989C20.3069 16.5147 21.0663 14.6813 21.22 12.75H20C19.8011 12.75 19.6103 12.671 19.4697 12.5303C19.329 12.3897 19.25 12.1989 19.25 12C19.25 11.8011 19.329 11.6103 19.4697 11.4697C19.6103 11.329 19.8011 11.25 20 11.25H21.22C21.0663 9.31875 20.3069 7.48529 19.05 6.011L18.03 7.031C17.9608 7.1026 17.878 7.1597 17.7865 7.19896C17.695 7.23822 17.5965 7.25886 17.4969 7.25968C17.3974 7.2605 17.2986 7.24148 17.2065 7.20372C17.1143 7.16597 17.0306 7.11024 16.9602 7.03979C16.8898 6.96934 16.8342 6.88557 16.7965 6.79338C16.7588 6.70119 16.7399 6.60242 16.7408 6.50284C16.7417 6.40326 16.7625 6.30485 16.8018 6.21337C16.8412 6.12188 16.8983 6.03915 16.97 5.97L17.989 4.95C16.5147 3.69309 14.6813 2.93367 12.75 2.78V4C12.75 4.19891 12.671 4.38968 12.5303 4.53033C12.3897 4.67098 12.1989 4.75 12 4.75C11.8011 4.75 11.6103 4.67098 11.4697 4.53033C11.329 4.38968 11.25 4.19891 11.25 4V2.78C9.31875 2.93367 7.48529 3.69309 6.011 4.95L7.031 5.97C7.16755 6.11152 7.24306 6.301 7.24126 6.49765C7.23946 6.6943 7.16049 6.88237 7.02137 7.02136C6.88225 7.16035 6.6941 7.23914 6.49745 7.24076C6.3008 7.24237 6.11139 7.16669 5.97 7.03L4.95 6.011C3.69309 7.48529 2.93367 9.31875 2.78 11.25ZM1.25 12C1.25 6.063 6.063 1.25 12 1.25C17.937 1.25 22.75 6.063 22.75 12C22.75 17.937 17.937 22.75 12 22.75C6.063 22.75 1.25 17.937 1.25 12ZM9.005 9.59C9.35327 9.24173 9.76672 8.96547 10.2217 8.77699C10.6768 8.58851 11.1645 8.49151 11.657 8.49151C12.1495 8.49151 12.6372 8.58851 13.0923 8.77699C13.5473 8.96547 13.9607 9.24173 14.309 9.59C14.6573 9.93827 14.9335 10.3517 15.122 10.8067C15.3105 11.2618 15.4075 11.7495 15.4075 12.242C15.4075 12.7345 15.3105 13.2222 15.122 13.6773C14.9335 14.1323 14.6573 14.5457 14.309 14.894C13.978 15.224 13.523 15.46 13.078 15.634C12.619 15.814 12.103 15.956 11.593 16.068L11.527 16.082C10.855 16.23 10.245 16.365 9.732 16.374C9.138 16.384 8.598 16.231 8.133 15.766C7.669 15.302 7.515 14.761 7.526 14.168C7.535 13.655 7.669 13.044 7.817 12.372L7.832 12.306C7.93782 11.8009 8.08259 11.3048 8.265 10.822C8.44 10.376 8.675 9.921 9.005 9.59ZM13.248 10.653C13.0391 10.4441 12.791 10.2783 12.518 10.1653C12.2451 10.0522 11.9525 9.99398 11.657 9.99398C11.3615 9.99398 11.0689 10.0522 10.796 10.1653C10.523 10.2783 10.2749 10.4441 10.066 10.653C9.951 10.768 9.807 10.998 9.661 11.37C9.521 11.73 9.399 12.164 9.297 12.63C9.129 13.39 9.032 13.85 9.025 14.195C9.021 14.475 9.078 14.59 9.194 14.707C9.31 14.824 9.424 14.88 9.706 14.875C10.05 14.869 10.511 14.771 11.271 14.604C11.737 14.501 12.171 14.38 12.53 14.239C12.902 14.093 13.133 13.949 13.248 13.835C13.4569 13.6261 13.6227 13.378 13.7357 13.105C13.8488 12.8321 13.907 12.5395 13.907 12.244C13.907 11.9485 13.8488 11.6559 13.7357 11.383C13.6227 11.11 13.4569 10.8619 13.248 10.653Z"
        fill="#596780" />
</svg>
