<svg width="24" height="25" viewBox="0 0 24 25" fill="none" xmlns="http://www.w3.org/2000/svg">
    <path
        d="M7 18.5C5.33333 18.5 3.91667 17.9167 2.75 16.75C1.58333 15.5833 1 14.1667 1 12.5C1 10.8333 1.58333 9.41667 2.75 8.25C3.91667 7.08333 5.33333 6.5 7 6.5H17C18.6667 6.5 20.0833 7.08333 21.25 8.25C22.4167 9.41667 23 10.8333 23 12.5C23 14.1667 22.4167 15.5833 21.25 16.75C20.0833 17.9167 18.6667 18.5 17 18.5H7ZM7 16.5H17C18.1 16.5 19.0417 16.1083 19.825 15.325C20.6083 14.5417 21 13.6 21 12.5C21 11.4 20.6083 10.4583 19.825 9.675C19.0417 8.89167 18.1 8.5 17 8.5H7C5.9 8.5 4.95833 8.89167 4.175 9.675C3.39167 10.4583 3 11.4 3 12.5C3 13.6 3.39167 14.5417 4.175 15.325C4.95833 16.1083 5.9 16.5 7 16.5ZM17 15.5C17.8333 15.5 18.5417 15.2083 19.125 14.625C19.7083 14.0417 20 13.3333 20 12.5C20 11.6667 19.7083 10.9583 19.125 10.375C18.5417 9.79167 17.8333 9.5 17 9.5C16.1667 9.5 15.4583 9.79167 14.875 10.375C14.2917 10.9583 14 11.6667 14 12.5C14 13.3333 14.2917 14.0417 14.875 14.625C15.4583 15.2083 16.1667 15.5 17 15.5Z"
        fill="#049A4A" />
</svg>
