<svg width="24" height="25" viewBox="0 0 24 25" fill="none" xmlns="http://www.w3.org/2000/svg">
    <path
        d="M7 18.5C5.33333 18.5 3.91667 17.9167 2.75 16.75C1.58333 15.5833 1 14.1667 1 12.5C1 10.8333 1.58333 9.41667 2.75 8.25C3.91667 7.08333 5.33333 6.5 7 6.5H17C18.6667 6.5 20.0833 7.08333 21.25 8.25C22.4167 9.41667 23 10.8333 23 12.5C23 14.1667 22.4167 15.5833 21.25 16.75C20.0833 17.9167 18.6667 18.5 17 18.5H7ZM7 16.5H17C18.1 16.5 19.0417 16.1083 19.825 15.325C20.6083 14.5417 21 13.6 21 12.5C21 11.4 20.6083 10.4583 19.825 9.675C19.0417 8.89167 18.1 8.5 17 8.5H7C5.9 8.5 4.95833 8.89167 4.175 9.675C3.39167 10.4583 3 11.4 3 12.5C3 13.6 3.39167 14.5417 4.175 15.325C4.95833 16.1083 5.9 16.5 7 16.5ZM7 15.5C7.83333 15.5 8.54167 15.2083 9.125 14.625C9.70833 14.0417 10 13.3333 10 12.5C10 11.6667 9.70833 10.9583 9.125 10.375C8.54167 9.79167 7.83333 9.5 7 9.5C6.16667 9.5 5.45833 9.79167 4.875 10.375C4.29167 10.9583 4 11.6667 4 12.5C4 13.3333 4.29167 14.0417 4.875 14.625C5.45833 15.2083 6.16667 15.5 7 15.5Z"
        fill="#90A3BF" />
</svg>