<svg width="24" height="24" viewBox="0 0 24 24" fill="none" xmlns="http://www.w3.org/2000/svg">
<rect opacity="0.8" x="0.5" y="0.5" width="23" height="23" rx="11.5" stroke="#FFC1C1"/>
<g clip-path="url(#clip0_1582_17025)">
<path d="M11.6233 9.72314C11.3535 9.72353 11.086 9.77207 10.8333 9.86648L13.7666 12.7998C13.8622 12.544 13.9107 12.2729 13.9099 11.9998C13.9073 11.3951 13.6652 10.816 13.2366 10.3894C12.8081 9.96268 12.228 9.72314 11.6233 9.72314Z" fill="#FF3636"/>
<path d="M16.9299 11.8431C15.8066 9.76643 13.8366 8.50977 11.6566 8.50977C11.063 8.51105 10.4734 8.60668 9.90991 8.7931L10.4466 9.3331C10.8419 9.23101 11.2483 9.17839 11.6566 9.17643C13.5332 9.17643 15.2399 10.2231 16.2566 11.9864C15.8833 12.6404 15.3889 13.2173 14.7999 13.6864L15.2732 14.1598C15.9555 13.6097 16.5219 12.93 16.9399 12.1598L17.0266 11.9998L16.9299 11.8431Z" fill="#FF3636"/>
<path d="M7.12321 7.92684L8.60988 9.41351C7.66999 10.0183 6.90193 10.8553 6.37988 11.8435L6.29321 12.0002L6.37988 12.1602C7.50321 14.2368 9.47321 15.4935 11.6532 15.4935C12.5041 15.4937 13.344 15.3011 14.1099 14.9302L15.7765 16.5968L16.3599 16.0968L7.69321 7.43018L7.12321 7.92684ZM9.88988 10.6935C9.57802 11.1333 9.43185 11.6693 9.47725 12.2065C9.52265 12.7437 9.75668 13.2476 10.1379 13.6288C10.5191 14.01 11.023 14.2441 11.5602 14.2895C12.0974 14.3349 12.6334 14.1887 13.0732 13.8768L13.6065 14.4102C12.9892 14.6742 12.3247 14.8103 11.6532 14.8102C9.77655 14.8102 8.06988 13.7635 7.05321 12.0002C7.54124 11.1363 8.24388 10.413 9.09321 9.90018L9.88988 10.6935Z" fill="#FF3636"/>
</g>
<defs>
<clipPath id="clip0_1582_17025">
<rect width="12" height="12" fill="white" transform="translate(5.5 6)"/>
</clipPath>
</defs>
</svg>
