<svg width="24" height="24" viewBox="0 0 24 24" fill="none" xmlns="http://www.w3.org/2000/svg">
<rect opacity="0.8" x="0.5" y="0.5" width="23" height="23" rx="11.5" stroke="#B7F9C1"/>
<path d="M9.4 14.5V13.75C9.4 13.05 8.7 12.5 8 12.5C7.3 12.5 6.6 13.05 6.6 13.75V14.5C6.3 14.5 6 14.8 6 15.1V16.85C6 17.2 6.3 17.5 6.6 17.5H9.35C9.7 17.5 10 17.2 10 16.9V15.15C10 14.8 9.7 14.5 9.4 14.5ZM8.75 14.5H7.25V13.75C7.25 13.35 7.6 13.1 8 13.1C8.4 13.1 8.75 13.35 8.75 13.75V14.5ZM16 7.5H11L7 11.5V11.72C7.305 11.585 7.645 11.5 8 11.5C9.3 11.5 10.4 12.53 10.4 13.75V13.875C10.765 14.18 11 14.64 11 15.15V16.5H16.5V8C16.5 7.725 16.275 7.5 16 7.5ZM15 14H13.5V13H15V14ZM15.5 11.5H8.415L11.415 8.5H15.5V11.5Z" fill="#00D923"/>
</svg>
