<svg width="25" height="24" viewBox="0 0 25 24" fill="none" xmlns="http://www.w3.org/2000/svg">
<g clip-path="url(#clip0_1582_17021)">
<path d="M17.2019 10.0637C16.6292 7.54373 14.431 6.40918 12.5001 6.40918C12.5001 6.40918 12.5001 6.40918 12.4947 6.40918C10.5692 6.40918 8.36557 7.53827 7.79285 10.0583C7.15466 12.8728 8.8783 15.2565 10.4383 16.7565C11.0165 17.3128 11.7583 17.591 12.5001 17.591C13.2419 17.591 13.9838 17.3128 14.5565 16.7565C16.1165 15.2565 17.8401 12.8783 17.2019 10.0637ZM12.5001 12.7965C11.551 12.7965 10.7819 12.0274 10.7819 11.0783C10.7819 10.1292 11.551 9.36009 12.5001 9.36009C13.4492 9.36009 14.2183 10.1292 14.2183 11.0783C14.2183 12.0274 13.4492 12.7965 12.5001 12.7965Z" fill="#3563E9"/>
</g>
<rect opacity="0.8" x="1" y="0.5" width="23" height="23" rx="11.5" stroke="#9FCAFF"/>
<defs>
<clipPath id="clip0_1582_17021">
<rect width="13.0909" height="13.0909" fill="white" transform="translate(5.95459 5.45459)"/>
</clipPath>
</defs>
</svg>
