<svg width="14" height="14" viewBox="0 0 14 14" fill="none" xmlns="http://www.w3.org/2000/svg">
    <path
        d="M13.0315 5.44258L11.8648 4.85925C11.649 4.75425 11.3807 4.83591 11.2757 5.05175C11.1648 5.27341 11.2523 5.53591 11.4682 5.64091L12.3957 6.10175V8.89591L10.2082 8.90175V2.91675C10.2082 1.75008 9.4265 1.16675 8.45817 1.16675H3.7915C2.82317 1.16675 2.0415 1.75008 2.0415 2.91675V12.3959H1.1665C0.927337 12.3959 0.729004 12.5942 0.729004 12.8334C0.729004 13.0726 0.927337 13.2709 1.1665 13.2709H11.0832C11.3223 13.2709 11.5207 13.0726 11.5207 12.8334C11.5207 12.5942 11.3223 12.3959 11.0832 12.3959H10.2082V9.77675L12.8332 9.77091C13.0782 9.77091 13.2707 9.57258 13.2707 9.33341V5.83341C13.2707 5.67008 13.1773 5.51841 13.0315 5.44258ZM3.49984 4.01925C3.49984 3.20841 3.99567 2.91675 4.60234 2.91675H7.65317C8.254 2.91675 8.74984 3.20841 8.74984 4.01925V4.73675C8.74984 5.54175 8.254 5.83341 7.64734 5.83341H4.60234C3.99567 5.83341 3.49984 5.54175 3.49984 4.73091V4.01925ZM3.7915 7.14591H5.5415C5.78067 7.14591 5.979 7.34425 5.979 7.58341C5.979 7.82258 5.78067 8.02091 5.5415 8.02091H3.7915C3.55234 8.02091 3.354 7.82258 3.354 7.58341C3.354 7.34425 3.55234 7.14591 3.7915 7.14591Z"
        fill="#90A3BF" />
</svg>
