<svg width="14" height="14" viewBox="0 0 14 14" fill="none" xmlns="http://www.w3.org/2000/svg">
    <path
        d="M5.24984 1.16675C3.7215 1.16675 2.479 2.40925 2.479 3.93758C2.479 5.43675 3.6515 6.65008 5.17984 6.70258C5.2265 6.69675 5.27317 6.69675 5.30817 6.70258C5.31984 6.70258 5.32567 6.70258 5.33734 6.70258C5.34317 6.70258 5.34317 6.70258 5.349 6.70258C6.84234 6.65008 8.01484 5.43675 8.02067 3.93758C8.02067 2.40925 6.77817 1.16675 5.24984 1.16675Z"
        fill="#90A3BF" />
    <path
        d="M8.21356 8.25418C6.58605 7.16918 3.93189 7.16918 2.29272 8.25418C1.55189 8.75001 1.14355 9.42085 1.14355 10.1383C1.14355 10.8558 1.55189 11.5208 2.28689 12.0108C3.10355 12.5592 4.17689 12.8333 5.25022 12.8333C6.32355 12.8333 7.39689 12.5592 8.21356 12.0108C8.94855 11.515 9.35689 10.85 9.35689 10.1267C9.35106 9.40918 8.94855 8.74418 8.21356 8.25418Z"
        fill="#90A3BF" />
    <path
        d="M11.661 4.28156C11.7543 5.41323 10.9493 6.4049 9.83512 6.53906C9.82929 6.53906 9.82929 6.53906 9.82346 6.53906H9.80596C9.77096 6.53906 9.73596 6.53906 9.70679 6.55073C9.14096 6.5799 8.62179 6.39906 8.23096 6.06656C8.83179 5.5299 9.17596 4.7249 9.10596 3.8499C9.06512 3.3774 8.90179 2.94573 8.65679 2.57823C8.87846 2.4674 9.13512 2.3974 9.39762 2.37406C10.541 2.2749 11.5618 3.12656 11.661 4.28156Z"
        fill="#90A3BF" />
    <path
        d="M12.8273 9.67757C12.7806 10.2434 12.419 10.7334 11.8123 11.0659C11.229 11.3867 10.494 11.5384 9.76481 11.5209C10.1848 11.1417 10.4298 10.6692 10.4765 10.1676C10.5348 9.44424 10.1906 8.75007 9.50231 8.1959C9.11148 7.88674 8.65648 7.64173 8.16064 7.4609C9.44981 7.08757 11.0715 7.3384 12.069 8.1434C12.6056 8.57507 12.8798 9.11757 12.8273 9.67757Z"
        fill="#90A3BF" />
</svg>
