<svg width="24" height="24" viewBox="0 0 24 24" fill="none" xmlns="http://www.w3.org/2000/svg">
    <path
        d="M14.6079 17.3615C15.5612 17.3615 16.1914 17.1038 16.7501 16.4792C16.7941 16.4355 16.8324 16.3862 16.8764 16.3422C17.205 15.9752 17.3584 15.6136 17.3584 15.2685C17.3584 14.8739 17.1284 14.5069 16.6407 14.167L15.0464 13.0604C14.5532 12.7207 13.9779 12.6824 13.5176 13.1371L13.0959 13.559C12.9697 13.685 12.8603 13.6906 12.7343 13.6137C12.4439 13.4274 11.8466 12.907 11.4411 12.5017C11.0137 12.0797 10.5974 11.6087 10.3837 11.2634C10.3071 11.1372 10.318 11.0332 10.444 10.9072L10.8604 10.4852C11.3207 10.0252 11.2823 9.44426 10.9427 8.95686L9.83041 7.36257C9.49612 6.8747 9.12911 6.65005 8.73451 6.64467C8.38947 6.63906 8.02784 6.79803 7.66082 7.1267C7.6115 7.17065 7.56755 7.20899 7.51822 7.24732C6.89921 7.80603 6.6416 8.43626 6.6416 9.38395C6.6416 10.9511 7.60589 12.8577 9.37573 14.6273C11.1344 16.3862 13.0466 17.3615 14.6079 17.3615ZM14.6135 16.5176C13.2163 16.5449 11.4249 15.4712 10.0057 14.0576C8.57578 12.6331 7.45254 10.7812 7.47989 9.38418C7.49087 8.7813 7.69916 8.26093 8.13209 7.88831C8.16482 7.85558 8.19755 7.828 8.23589 7.80065C8.39485 7.65805 8.57578 7.58161 8.72913 7.58161C8.89347 7.58161 9.03584 7.64169 9.14009 7.80603L10.203 9.40031C10.318 9.57026 10.329 9.76218 10.1591 9.9319L9.67706 10.4142C9.29345 10.7922 9.32641 11.2524 9.60038 11.6195C9.91246 12.0414 10.455 12.655 10.8714 13.0714C11.2933 13.4933 11.956 14.085 12.378 14.4027C12.745 14.6766 13.2109 14.7042 13.5889 14.326L14.0709 13.844C14.2409 13.674 14.4272 13.685 14.5969 13.7946L16.1912 14.8576C16.3558 14.967 16.4214 15.104 16.4214 15.2685C16.4214 15.4275 16.3448 15.6028 16.197 15.7669C16.1713 15.803 16.1438 15.8378 16.1147 15.8712C15.7367 16.2985 15.2161 16.5066 14.6135 16.5176Z"
        fill="#90A3BF" />
    <rect opacity="0.8" x="0.5" y="0.5" width="23" height="23" rx="11.5" stroke="#C3D4E9"
        stroke-opacity="0.4" />
</svg>
