<svg width="44" height="44" viewBox="0 0 44 44" fill="none" xmlns="http://www.w3.org/2000/svg">
<g clip-path="url(#clip0_1397_16903)">
<path d="M30.6201 18.45C29.5701 13.83 25.5401 11.75 22.0001 11.75C22.0001 11.75 22.0001 11.75 21.9901 11.75C18.4601 11.75 14.4201 13.82 13.3701 18.44C12.2001 23.6 15.3601 27.97 18.2201 30.72C19.2801 31.74 20.6401 32.25 22.0001 32.25C23.3601 32.25 24.7201 31.74 25.7701 30.72C28.6301 27.97 31.7901 23.61 30.6201 18.45ZM22.0001 23.46C20.2601 23.46 18.8501 22.05 18.8501 20.31C18.8501 18.57 20.2601 17.16 22.0001 17.16C23.7401 17.16 25.1501 18.57 25.1501 20.31C25.1501 22.05 23.7401 23.46 22.0001 23.46Z" fill="#90A3BF"/>
</g>
<rect opacity="0.8" x="0.5" y="0.5" width="43" height="43" rx="21.5" stroke="#C3D4E9" stroke-opacity="0.4"/>
<defs>
<clipPath id="clip0_1397_16903">
<rect width="24" height="24" fill="white" transform="translate(10 10)"/>
</clipPath>
</defs>
</svg>
