<svg width="32" height="32" viewBox="0 0 32 32" fill="none" xmlns="http://www.w3.org/2000/svg">
    <path
        d="M25.053 5.95995C24.1585 6.01107 23.2612 5.93929 22.3863 5.74662C21.3309 5.38522 20.3438 4.84885 19.4663 4.15995C18.7156 3.6278 18.0028 3.04418 17.333 2.41329C17.049 2.14803 16.6749 2.00049 16.2863 2.00049C15.8977 2.00049 15.5236 2.14803 15.2396 2.41329C14.5876 3.02423 13.9021 3.59845 13.1863 4.13329C12.3034 4.83124 11.3126 5.38066 10.253 5.75995C9.25634 5.98514 8.23255 6.06596 7.21295 5.99995C6.37809 5.96538 5.54574 5.88526 4.71962 5.75995C4.51775 5.73003 4.31191 5.74106 4.1144 5.79239C3.91688 5.84372 3.73172 5.9343 3.56996 6.05873C3.40821 6.18316 3.27316 6.33889 3.17288 6.51663C3.0726 6.69437 3.00914 6.89049 2.98629 7.09329C2.91962 7.73329 2.74629 9.39995 2.66629 11.2533C2.55417 13.105 2.67061 14.9634 3.01295 16.7866C3.97834 19.8072 5.75388 22.5051 8.14629 24.5866C10.0479 26.3803 12.1098 27.9959 14.3063 29.4133C14.8949 29.8175 15.5922 30.0338 16.3063 30.0338C17.0203 30.0338 17.7176 29.8175 18.3063 29.4133C20.3863 27.959 22.3318 26.3213 24.1196 24.5199C26.372 22.4232 28.04 19.7765 28.9596 16.84"
        stroke="#1A202C" stroke-width="2.5" stroke-linecap="round" stroke-linejoin="round" />
    <path
        d="M14.6665 14.6667L18.4798 18.48C18.5036 18.5059 18.5324 18.5265 18.5645 18.5406C18.5967 18.5548 18.6314 18.5621 18.6665 18.5621C18.7016 18.5621 18.7363 18.5548 18.7685 18.5406C18.8006 18.5265 18.8294 18.5059 18.8532 18.48L29.3332 8"
        stroke="#3563E9" stroke-width="2.5" stroke-linecap="round" stroke-linejoin="round" />
</svg>
