<svg width="132" height="134" viewBox="0 0 132 134" fill="none" xmlns="http://www.w3.org/2000/svg">
    <rect x="2" y="2" width="128" height="130" rx="14" fill="white" />
    <rect x="2" y="2" width="128" height="130" rx="14" stroke="#CBD0DC" stroke-width="4"
        stroke-dasharray="18.69 18.69" />
    <path fill-rule="evenodd" clip-rule="evenodd"
        d="M66 72.0001C66.2652 72.0001 66.5196 71.8947 66.7071 71.7072C66.8946 71.5197 67 71.2653 67 71.0001V56.3694L69.24 58.9841C69.4126 59.1857 69.6581 59.3104 69.9227 59.3309C70.1872 59.3514 70.4491 59.266 70.6507 59.0934C70.8522 58.9209 70.977 58.6753 70.9975 58.4107C71.018 58.1462 70.9326 57.8843 70.76 57.6828L66.76 53.0161C66.6661 52.9063 66.5496 52.8182 66.4184 52.7577C66.2872 52.6973 66.1444 52.666 66 52.666C65.8555 52.666 65.7128 52.6973 65.5816 52.7577C65.4504 52.8182 65.3339 52.9063 65.24 53.0161L61.24 57.6828C61.1545 57.7826 61.0896 57.8982 61.0488 58.0231C61.0081 58.148 60.9924 58.2797 61.0025 58.4107C61.0127 58.5417 61.0485 58.6694 61.108 58.7866C61.1675 58.9037 61.2495 59.008 61.3493 59.0934C61.4491 59.1789 61.5648 59.2438 61.6897 59.2846C61.8146 59.3253 61.9463 59.3411 62.0773 59.3309C62.2083 59.3208 62.336 59.2849 62.4531 59.2254C62.5703 59.1659 62.6745 59.0839 62.76 58.9841L65 56.3708V71.0001C65 71.5521 65.448 72.0001 66 72.0001Z"
        fill="#90A3BF" />
    <path
        d="M71.3334 63C70.3974 63 69.9294 63 69.5921 63.2253C69.447 63.3224 69.3225 63.447 69.2254 63.592C69.0001 63.9293 69.0001 64.3973 69.0001 65.3333V71C69.0001 71.7956 68.684 72.5587 68.1214 73.1213C67.5588 73.6839 66.7957 74 66.0001 74C65.2044 74 64.4414 73.6839 63.8788 73.1213C63.3162 72.5587 63.0001 71.7956 63.0001 71V65.3333C63.0001 64.3973 63.0001 63.9293 62.7747 63.592C62.6777 63.447 62.5531 63.3224 62.4081 63.2253C62.0707 63 61.6027 63 60.6667 63C56.8961 63 55.0094 63 53.8387 64.172C52.6667 65.3427 52.6667 67.2267 52.6667 70.9987V72.332C52.6667 76.1053 52.6667 77.9893 53.8387 79.1613C55.0094 80.3333 56.8961 80.3333 60.6667 80.3333H71.3334C75.1041 80.3333 76.9907 80.3333 78.1614 79.1613C79.3321 77.9893 79.3334 76.104 79.3334 72.3333V71C79.3334 67.228 79.3334 65.3427 78.1614 64.172C76.9907 63 75.1041 63 71.3334 63Z"
        fill="#90A3BF" />
</svg>
